<svg id="Layer_1" data-name="Layer 1" xmlns="http://www.w3.org/2000/svg" width="300" height="80" viewBox="0 0 300 80"><defs><style>.cls-1{fill:#006838;}.cls-2{fill:#868487;}.cls-3{fill:#fff;}</style></defs><title>Artboard 1</title><path class="cls-1" d="M99.45,60.76q0,.22-.13.22a4.68,4.68,0,0,0-1,.21.93.93,0,0,0-.49.36,1.6,1.6,0,0,0-.14.79v7.08A6.74,6.74,0,0,1,97,72.29a6,6,0,0,1-1.73,2.24,3.57,3.57,0,0,1-2.23.84A1.78,1.78,0,0,1,92,75.09a.89.89,0,0,1-.39-.75,1,1,0,0,1,.33-.74,1.2,1.2,0,0,1,.84-.3,1,1,0,0,1,.46.1,1.81,1.81,0,0,1,.48.43,1,1,0,0,0,.71.46q.74,0,1.17-1.16A9.57,9.57,0,0,0,96,69.86V62.34a1.66,1.66,0,0,0-.13-.78.91.91,0,0,0-.48-.36,4.48,4.48,0,0,0-1-.22q-.13,0-.13-.22t.13-.22q.53,0,1.27,0t1.19,0q.49,0,1.2,0t1.28,0T99.45,60.76Z"/><path class="cls-1" d="M104,71.83a1.36,1.36,0,0,1-.77-.22,1.09,1.09,0,0,1-.45-.59,3,3,0,0,1-2.24.88,1.61,1.61,0,0,1-1.17-.44,1.48,1.48,0,0,1-.46-1.11q0-1.64,3.88-2.65l0-1.25v0a1.38,1.38,0,0,0-.28-.92.94.94,0,0,0-.75-.34,1.36,1.36,0,0,0-.8.23.7.7,0,0,0-.34.57,1.18,1.18,0,0,1-.27.8.89.89,0,0,1-.69.29.58.58,0,0,1-.42-.15.53.53,0,0,1-.16-.41q0-.62,1.12-1.29a4.07,4.07,0,0,1,2.08-.67,1.94,1.94,0,0,1,1.4.51,1.81,1.81,0,0,1,.54,1.37v.1l-.12,3.61v.06q0,.84.54.84a1,1,0,0,0,.62-.32l.06,0a.15.15,0,0,1,.12.08.32.32,0,0,1,.06.18c0,.15-.16.34-.48.57A1.8,1.8,0,0,1,104,71.83Zm-1.22-3.6q-2.32.53-2.33,1.75t.88,1.14a1.79,1.79,0,0,0,.83-.21,1.16,1.16,0,0,0,.55-.52Z"/><path class="cls-1" d="M111.81,65.77a.58.58,0,0,1-.65.66.81.81,0,0,1-.46-.12,1.26,1.26,0,0,1-.36-.52,1.37,1.37,0,0,0-.46-.62,1.21,1.21,0,0,0-.64-.15,1.64,1.64,0,0,0-1.47.8,4.42,4.42,0,0,0-.51,2.35,3.19,3.19,0,0,0,.64,2.07,2.09,2.09,0,0,0,1.71.79,2.51,2.51,0,0,0,1.93-.76l0,0a.19.19,0,0,1,.14.09.34.34,0,0,1,.07.2q0,.16-.47.55a3.35,3.35,0,0,1-1,.59,3.47,3.47,0,0,1-1.18.2,3.29,3.29,0,0,1-2.45-1.05,3.66,3.66,0,0,1-1-2.66,3.6,3.6,0,0,1,3.6-3.68,4.08,4.08,0,0,1,1.83.37Q111.81,65.25,111.81,65.77Z"/><path class="cls-1" d="M120.86,71.43c0,.15,0,.22-.13.22s-.49,0-.82,0-.68,0-.94,0-.59,0-1,0-.66,0-.87,0-.13-.07-.13-.22,0-.21.13-.22a.72.72,0,0,0,.3-.08.24.24,0,0,0,.09-.22q0-.24-.77-1.05l-1.28-1.42a.58.58,0,0,0-.43-.16v1.58a2.12,2.12,0,0,0,.17,1,.8.8,0,0,0,.64.35c.08,0,.13.08.13.22s0,.22-.13.22-.53,0-.89,0-.62,0-.83,0-.5,0-.83,0a7.63,7.63,0,0,1-.77,0c-.08,0-.13-.07-.13-.22s0-.21.13-.22a1.32,1.32,0,0,0,.87-.32,1.79,1.79,0,0,0,.2-1V62.45a1.52,1.52,0,0,0-.16-.85,1.09,1.09,0,0,0-.72-.26c-.09,0-.13-.08-.13-.2s0-.21.13-.21a5.08,5.08,0,0,0,2-.85.35.35,0,0,1,.2-.1c.15,0,.22,0,.22.13q-.13,1.31-.13,2.78v5a.65.65,0,0,0,.46-.15l1.19-1.13.18-.17q.66-.6.66-.9t-.64-.29c-.08,0-.13-.08-.13-.22s0-.22.13-.22.51,0,.85,0,.58,0,.78,0a5.86,5.86,0,0,0,.6,0,6.54,6.54,0,0,1,.8-.06q.13,0,.13.22t-.13.22a3.13,3.13,0,0,0-1,.27,5.78,5.78,0,0,0-1.18.87l-1.37,1.22,2.09,2.29a5.44,5.44,0,0,0,1.12,1,2.92,2.92,0,0,0,1.19.35C120.82,71.22,120.86,71.3,120.86,71.43Z"/><path class="cls-1" d="M134.37,63.8a3,3,0,0,1-1.08,2.36,3.9,3.9,0,0,1-2.68,1q-1,0-1.88-.08v2.83a1.57,1.57,0,0,0,.14.78.94.94,0,0,0,.49.36,4.53,4.53,0,0,0,1,.21c.08,0,.13.08.13.22s0,.22-.13.22q-.54,0-1.27,0t-1.19,0q-.49,0-1.2,0t-1.28,0c-.08,0-.13-.07-.13-.22s0-.21.13-.22a3.06,3.06,0,0,0,1.31-.36,1.16,1.16,0,0,0,.35-1V62.34a1.6,1.6,0,0,0-.14-.79.93.93,0,0,0-.49-.36,4.68,4.68,0,0,0-1-.21c-.08,0-.13-.07-.13-.22s0-.22.13-.22q.54,0,1.28,0t1.2,0q.49,0,1.19,0t1.27,0a4.62,4.62,0,0,1,3,.83A3,3,0,0,1,134.37,63.8Zm-1.77,0a3,3,0,0,0-.63-2,2.1,2.1,0,0,0-1.67-.72,3.7,3.7,0,0,0-1,.1.8.8,0,0,0-.48.31,1.76,1.76,0,0,0-.14.86V66a.48.48,0,0,0,.22.46,2.36,2.36,0,0,0,.93.12,2.65,2.65,0,0,0,2-.75A2.85,2.85,0,0,0,132.61,63.8Z"/><path class="cls-1" d="M139.41,71.83a1.36,1.36,0,0,1-.77-.22,1.09,1.09,0,0,1-.45-.59,3,3,0,0,1-2.24.88,1.61,1.61,0,0,1-1.17-.44,1.48,1.48,0,0,1-.46-1.11q0-1.64,3.88-2.65l0-1.25v0a1.38,1.38,0,0,0-.28-.92.94.94,0,0,0-.75-.34,1.36,1.36,0,0,0-.8.23.7.7,0,0,0-.34.57,1.18,1.18,0,0,1-.27.8.89.89,0,0,1-.69.29.58.58,0,0,1-.42-.15.53.53,0,0,1-.16-.41q0-.62,1.12-1.29a4.07,4.07,0,0,1,2.08-.67,1.94,1.94,0,0,1,1.4.51,1.81,1.81,0,0,1,.54,1.37v.1l-.12,3.61v.06q0,.84.54.84a1,1,0,0,0,.62-.32l.06,0a.15.15,0,0,1,.12.08.32.32,0,0,1,.06.18c0,.15-.16.34-.48.57A1.8,1.8,0,0,1,139.41,71.83Zm-1.22-3.6q-2.32.53-2.33,1.75t.88,1.14a1.79,1.79,0,0,0,.83-.21,1.16,1.16,0,0,0,.55-.52Z"/><path class="cls-1" d="M149.28,75.57q0,.22-.13.22c-.21,0-.49,0-.84,0s-.7,0-1,0-.58,0-1,0-.63,0-.84,0-.13-.07-.13-.22,0-.22.13-.22a1.38,1.38,0,0,0,.88-.34,1.74,1.74,0,0,0,.2-1V71.37a3.13,3.13,0,0,1-1.77.53,3.67,3.67,0,0,1-2.67-1,3.82,3.82,0,0,1,0-5.26,3.3,3.3,0,0,1,2.46-1.11,4.28,4.28,0,0,1,1.49.27A2.61,2.61,0,0,0,147,65a.73.73,0,0,0,.72-.4.2.2,0,0,1,.2-.11c.13,0,.19,0,.19.13l0,.43q0,1,0,1.18V74a1.76,1.76,0,0,0,.2,1,1.37,1.37,0,0,0,.88.32Q149.28,75.35,149.28,75.57Zm-2.64-5.66V66.37a1.14,1.14,0,0,0-.55-1,2.1,2.1,0,0,0-1.24-.39,1.73,1.73,0,0,0-1.49.9,3.9,3.9,0,0,0-.58,2.18,4.27,4.27,0,0,0,.58,2.43,1.93,1.93,0,0,0,1.7.85,1.63,1.63,0,0,0,1.09-.42A1.33,1.33,0,0,0,146.65,69.91Z"/><path class="cls-1" d="M157,71.13c0,.11,0,.18-.13.19a4.38,4.38,0,0,0-2,.55.37.37,0,0,1-.22.09c-.11,0-.16,0-.16-.13l.06-1a3.39,3.39,0,0,1-2.14,1.07,2.13,2.13,0,0,1-2.32-2.3v-3a1.65,1.65,0,0,0-.18-.94.9.9,0,0,0-.73-.23h-.23c-.08,0-.12-.07-.12-.2s0-.25.13-.25a10.88,10.88,0,0,0,2.42-.36c.1,0,.14.07.14.2v4.39a2,2,0,0,0,.34,1.31,1.33,1.33,0,0,0,1.08.41,1.87,1.87,0,0,0,.83-.18,2.7,2.7,0,0,0,.77-.62V66.6a1.62,1.62,0,0,0-.19-.94.92.92,0,0,0-.75-.24h-.22c-.08,0-.12-.07-.12-.2s0-.25.13-.25a11,11,0,0,0,2.43-.36c.1,0,.14.07.14.2v5.1a1.23,1.23,0,0,0,.15.74,1.2,1.2,0,0,0,.73.27C156.93,70.92,157,71,157,71.13Z"/><path class="cls-1" d="M163.71,67.11c0,.15-.1.22-.29.22H159a8,8,0,0,0,0,.89,2.89,2.89,0,0,0,.61,2,2.2,2.2,0,0,0,1.74.69,2.43,2.43,0,0,0,1.14-.3,2.71,2.71,0,0,0,.93-.78l0,0a.19.19,0,0,1,.14.09.33.33,0,0,1,.07.21q0,.17-.51.7a3.75,3.75,0,0,1-1.11.81,2.93,2.93,0,0,1-1.25.28,3.18,3.18,0,0,1-2.42-1.05,3.66,3.66,0,0,1-1-2.59,3.85,3.85,0,0,1,1-2.65,3.12,3.12,0,0,1,2.44-1.09,2.89,2.89,0,0,1,2.08.81A2.45,2.45,0,0,1,163.71,67.11Zm-1.45-.7a1.32,1.32,0,0,0-.41-1,1.47,1.47,0,0,0-1.06-.4,1.38,1.38,0,0,0-1.07.51,2.81,2.81,0,0,0-.61,1.35l2.22-.06a2.12,2.12,0,0,0,.71-.1A.32.32,0,0,0,162.26,66.41Z"/><path class="cls-1" d="M169.5,65.29c0,.29-.07.43-.21.43l-2.38-.06V69.5q0,1.5,1.07,1.5a2.38,2.38,0,0,0,1.21-.31.15.15,0,0,1,.12.08.34.34,0,0,1,.05.18q0,.2-.59.54a2.64,2.64,0,0,1-1.34.34,1.94,1.94,0,0,1-1.45-.55,2,2,0,0,1-.54-1.47v-.07l0-3.88c0-.15-.06-.22-.19-.22h-.61c-.12,0-.18-.07-.18-.2a.25.25,0,0,1,.14-.24,6.16,6.16,0,0,0,1.93-1.85.26.26,0,0,1,.22-.13c.15,0,.22,0,.22.13l-.06,1.53h2.35Q169.5,64.86,169.5,65.29Z"/><path class="cls-1" d="M175.4,65.29c0,.29-.07.43-.21.43l-2.38-.06V69.5q0,1.5,1.07,1.5a2.38,2.38,0,0,0,1.21-.31.15.15,0,0,1,.12.08.34.34,0,0,1,.05.18q0,.2-.59.54a2.64,2.64,0,0,1-1.34.34,1.94,1.94,0,0,1-1.45-.55,2,2,0,0,1-.54-1.47v-.07l0-3.88c0-.15-.06-.22-.19-.22h-.61c-.12,0-.18-.07-.18-.2a.25.25,0,0,1,.14-.24,6.16,6.16,0,0,0,1.93-1.85.26.26,0,0,1,.22-.13c.15,0,.22,0,.22.13l-.06,1.53h2.35Q175.4,64.86,175.4,65.29Z"/><path class="cls-1" d="M182.11,67.11c0,.15-.1.22-.29.22h-4.38a8,8,0,0,0,0,.89,2.89,2.89,0,0,0,.61,2,2.2,2.2,0,0,0,1.74.69,2.43,2.43,0,0,0,1.14-.3,2.71,2.71,0,0,0,.93-.78l0,0a.19.19,0,0,1,.14.09.33.33,0,0,1,.07.21q0,.17-.51.7a3.75,3.75,0,0,1-1.11.81,2.93,2.93,0,0,1-1.25.28,3.18,3.18,0,0,1-2.42-1.05,3.66,3.66,0,0,1-1-2.59,3.85,3.85,0,0,1,1-2.65,3.12,3.12,0,0,1,2.44-1.09,2.89,2.89,0,0,1,2.08.81A2.45,2.45,0,0,1,182.11,67.11Zm-1.45-.7a1.32,1.32,0,0,0-.41-1,1.47,1.47,0,0,0-1.06-.4,1.38,1.38,0,0,0-1.07.51,2.81,2.81,0,0,0-.61,1.35l2.22-.06a2.12,2.12,0,0,0,.71-.1A.32.32,0,0,0,180.65,66.41Z"/><path class="cls-1" d="M185.58,71.51a3.11,3.11,0,0,1-.3,1.38,3.32,3.32,0,0,1-.91,1.12,2.08,2.08,0,0,1-.77.5.21.21,0,0,1-.18-.1.35.35,0,0,1-.07-.19l0-.06a2.38,2.38,0,0,0,1.31-2c0-.25,0-.37-.13-.37l-.1,0a.42.42,0,0,1-.16,0,.82.82,0,0,1-.63-.28,1,1,0,0,1-.25-.67.93.93,0,0,1,.93-.93,1.08,1.08,0,0,1,.88.44A1.74,1.74,0,0,1,185.58,71.51Z"/><path class="cls-1" d="M199.59,67.56a3.81,3.81,0,0,1-1.22,2.95,4.7,4.7,0,0,1-3.31,1.12l-1.06,0-1.09,0q-1.1,0-2.15,0c-.06,0-.1-.06-.1-.17s0-.15.1-.16a3.5,3.5,0,0,0,.75-.16.7.7,0,0,0,.37-.26,1.17,1.17,0,0,0,.1-.58V64.73a1.23,1.23,0,0,0-.1-.58.67.67,0,0,0-.36-.27,3.34,3.34,0,0,0-.77-.16c-.06,0-.1-.05-.1-.16s0-.16.1-.16q.69,0,2.15,0l1.09,0,1.06,0a4.63,4.63,0,0,1,3.28,1.16A3.89,3.89,0,0,1,199.59,67.56Zm-1.31,0a4,4,0,0,0-.92-2.69A2.92,2.92,0,0,0,195,63.79h0l-1.12,0q-.7,0-.7.69v6a.61.61,0,0,0,.7.68l1.12,0a3,3,0,0,0,2.33-1.05A3.8,3.8,0,0,0,198.28,67.56Z"/><path class="cls-1" d="M210.23,71.46c0,.11,0,.17-.1.17q-.4,0-1,0l-.91,0-.88,0q-.55,0-.94,0c-.07,0-.11-.06-.11-.17s0-.15.09-.16a2.31,2.31,0,0,0,.95-.26.73.73,0,0,0,.25-.65V70.3l-.25-5.75-2.86,7.17a.16.16,0,0,1-.17.09c-.09,0-.14,0-.16-.09l-2.69-6.89-.43,5.47a1.57,1.57,0,0,0,0,.18.62.62,0,0,0,.27.57,2.47,2.47,0,0,0,1,.25c.05,0,.08.06.08.16s0,.16-.11.16l-.84,0-.77,0-.81,0-.76,0c-.06,0-.08-.06-.08-.17s0-.15.11-.16a2.58,2.58,0,0,0,1-.28.9.9,0,0,0,.33-.72l.62-5.59q0-.11,0-.19a.61.61,0,0,0-.27-.56,2.63,2.63,0,0,0-1-.26c-.06,0-.08-.05-.08-.16a.2.2,0,0,1,0-.11s0-.05.07-.05l.62,0,.5,0,.59,0,.62,0L204.75,70l2.63-6.59.62,0,.55,0c.17,0,.37,0,.6,0l.62,0c.07,0,.11.05.11.16s0,.16-.09.16a2.31,2.31,0,0,0-.95.26.74.74,0,0,0-.25.65v.1l.27,5.59a1.2,1.2,0,0,0,.13.58.73.73,0,0,0,.38.26,3.66,3.66,0,0,0,.77.16C210.19,71.31,210.23,71.36,210.23,71.46Z"/><path class="cls-1" d="M219.74,67.56a3.81,3.81,0,0,1-1.22,2.95,4.7,4.7,0,0,1-3.31,1.12l-1.06,0-1.09,0q-1.1,0-2.15,0c-.06,0-.1-.06-.1-.17s0-.15.1-.16a3.5,3.5,0,0,0,.75-.16.7.7,0,0,0,.37-.26,1.17,1.17,0,0,0,.1-.58V64.73a1.23,1.23,0,0,0-.1-.58.67.67,0,0,0-.36-.27,3.34,3.34,0,0,0-.77-.16c-.06,0-.1-.05-.1-.16s0-.16.1-.16q.69,0,2.15,0l1.09,0,1.06,0a4.63,4.63,0,0,1,3.28,1.16A3.89,3.89,0,0,1,219.74,67.56Zm-1.31,0a4,4,0,0,0-.92-2.69,2.92,2.92,0,0,0-2.31-1.07h0l-1.12,0q-.7,0-.7.69v6a.61.61,0,0,0,.7.68l1.12,0a3,3,0,0,0,2.33-1.05A3.8,3.8,0,0,0,218.43,67.56Z"/><rect class="cls-2" x="51.84" y="36.82" width="218.72" height="18.15" rx="5.53" ry="5.53"/><path class="cls-1" d="M72.6,33.56a3.48,3.48,0,0,1-2-.56,2.79,2.79,0,0,1-1.14-1.52,7.6,7.6,0,0,1-5.7,2.24,4.11,4.11,0,0,1-3-1.13,3.78,3.78,0,0,1-1.16-2.82q0-4.18,9.9-6.76l.12-3.18v-.1a3.52,3.52,0,0,0-.72-2.33A2.38,2.38,0,0,0,67,16.53a3.48,3.48,0,0,0-2,.58,1.78,1.78,0,0,0-.86,1.46,3,3,0,0,1-.68,2,2.26,2.26,0,0,1-1.76.73,1.47,1.47,0,0,1-1.06-.39,1.36,1.36,0,0,1-.41-1q0-1.57,2.85-3.29a10.38,10.38,0,0,1,5.3-1.72,5,5,0,0,1,3.56,1.3,4.62,4.62,0,0,1,1.36,3.5V20L73,29.16v.14q0,2.14,1.38,2.14a2.53,2.53,0,0,0,1.57-.82l.14,0a.39.39,0,0,1,.31.21.82.82,0,0,1,.14.46q0,.59-1.23,1.45A4.6,4.6,0,0,1,72.6,33.56Zm-3.12-9.19q-5.93,1.35-5.93,4.45,0,2.9,2.23,2.9a4.57,4.57,0,0,0,2.12-.54,3,3,0,0,0,1.41-1.34Z"/><path class="cls-1" d="M91.39,16.94a2,2,0,0,1-.5,1.38,1.55,1.55,0,0,1-1.21.57,3.14,3.14,0,0,1-1.77-.59,2.26,2.26,0,0,0-1.2-.47A3.87,3.87,0,0,0,84,19.38v9.16A3.82,3.82,0,0,0,84.59,31a4.27,4.27,0,0,0,2.61,1q.33,0,.33.55t-.33.57q-.84,0-2.36-.12-1.69-.12-2.68-.12T79.7,33q-1.3.12-2.14.12-.33,0-.33-.57t.33-.55a3.59,3.59,0,0,0,2.27-.83,4.53,4.53,0,0,0,.5-2.6V21a3.68,3.68,0,0,0-.42-2.14,2.87,2.87,0,0,0-1.86-.67q-.33,0-.33-.54t.33-.5a18.25,18.25,0,0,0,3.32-1.13A5.92,5.92,0,0,0,83.09,15a.7.7,0,0,1,.49-.24q.57,0,.57.33L84,17.63a13.87,13.87,0,0,1,2.8-2.12,5,5,0,0,1,2.33-.61,2.31,2.31,0,0,1,1.61.61A1.87,1.87,0,0,1,91.39,16.94Z"/><path class="cls-1" d="M122.49,16.12c0,.34-.11.52-.33.55a4.06,4.06,0,0,0-2.29.88,9.42,9.42,0,0,0-1.48,2.57l-5.85,13.32a.58.58,0,0,1-.53.32.45.45,0,0,1-.45-.32l-4.17-10.68-4.77,10.68a.61.61,0,0,1-.53.32.51.51,0,0,1-.51-.32L96.12,20.12a7,7,0,0,0-1.55-2.53,3.77,3.77,0,0,0-2.24-.91c-.22,0-.33-.21-.33-.56s.11-.56.32-.56q.81,0,2,.12t2.32.12q1,0,2.28-.12t2-.12q.33,0,.33.56c0,.35-.11.53-.33.56a3.07,3.07,0,0,0-1.42.43,1.13,1.13,0,0,0-.4,1,7.4,7.4,0,0,0,.55,2.16l3.3,8,3.53-8-.13-.64q-.1-.23-.24-.64a6.53,6.53,0,0,0-.88-1.79,2,2,0,0,0-1.32-.52c-.22,0-.33-.21-.33-.56s.11-.56.33-.56a15.52,15.52,0,0,1,1.77.12,17.84,17.84,0,0,0,1.93.12q1,0,2.27-.12t2.07-.12q.33,0,.33.57t-.33.55q-2.13.29-2.13,2.08a4,4,0,0,0,.22,1.4L113,28l3.23-7.56a5.52,5.52,0,0,0,.59-2.18q0-1.36-1.84-1.6-.35,0-.35-.55t.33-.57a17.17,17.17,0,0,1,1.94.12,16.17,16.17,0,0,0,1.87.12,12.89,12.89,0,0,0,1.34-.1,17.92,17.92,0,0,1,2-.14Q122.49,15.55,122.49,16.12Z"/><path class="cls-1" d="M131.51,32.54q0,.57-.33.57-.83,0-2.14-.12-1.46-.12-2.45-.12t-2.43.12q-1.28.12-2.12.12-.33,0-.33-.57T122,32a3.52,3.52,0,0,0,2.23-.83,4.53,4.53,0,0,0,.5-2.6V21a3.68,3.68,0,0,0-.42-2.14,2.81,2.81,0,0,0-1.82-.67q-.33,0-.33-.54t.32-.5A21.44,21.44,0,0,0,126,16a5.5,5.5,0,0,0,1.71-1,.58.58,0,0,1,.45-.24q.57,0,.57.33-.33,4.56-.33,7.09v6.39a4.53,4.53,0,0,0,.5,2.61,3.58,3.58,0,0,0,2.27.84Q131.51,32,131.51,32.54ZM128.66,7.92A2.05,2.05,0,0,1,128,9.4a2.09,2.09,0,0,1-3,0,2.13,2.13,0,0,1,0-3,2.12,2.12,0,0,1,3.62,1.51Z"/><path class="cls-1" d="M147.6,18.12a1.48,1.48,0,0,1-1.67,1.67,2.07,2.07,0,0,1-1.17-.31,3.2,3.2,0,0,1-.93-1.32,3.51,3.51,0,0,0-1.17-1.58A3.09,3.09,0,0,0,141,16.2a4.18,4.18,0,0,0-3.76,2,11.28,11.28,0,0,0-1.29,6,8.12,8.12,0,0,0,1.63,5.29,5.33,5.33,0,0,0,4.36,2,6.4,6.4,0,0,0,4.91-1.93l.1,0a.47.47,0,0,1,.36.23.85.85,0,0,1,.17.52q0,.41-1.19,1.41a8.53,8.53,0,0,1-2.61,1.51,8.81,8.81,0,0,1-3,.51A8.39,8.39,0,0,1,134.48,31a9.33,9.33,0,0,1-2.6-6.77A9.18,9.18,0,0,1,141,14.9a10.38,10.38,0,0,1,4.65.95Q147.6,16.8,147.6,18.12Z"/><path class="cls-1" d="M169.86,32.54q0,.57-.33.57-.82,0-2.1-.12t-2.4-.12q-1,0-2.51.12t-2.22.12c-.22,0-.32-.19-.32-.57s.11-.52.32-.55a1.9,1.9,0,0,0,.75-.2.61.61,0,0,0,.22-.55q0-.61-2-2.69l-3.26-3.62a1.49,1.49,0,0,0-1.1-.41v4a5.37,5.37,0,0,0,.44,2.55,2,2,0,0,0,1.64.9q.32,0,.32.55t-.32.57q-.88,0-2.28-.12t-2.11-.12q-.87,0-2.11.12t-2,.12q-.33,0-.33-.57t.33-.55a3.36,3.36,0,0,0,2.22-.8,4.55,4.55,0,0,0,.51-2.63V9.64a3.88,3.88,0,0,0-.4-2.16,2.77,2.77,0,0,0-1.84-.67q-.33,0-.33-.52t.33-.54a13,13,0,0,0,5.14-2.16.89.89,0,0,1,.51-.24c.38,0,.57.11.57.33Q155,7,155,10.77V23.39a1.67,1.67,0,0,0,1.16-.39l3-2.88.47-.43q1.69-1.54,1.69-2.28,0-.53-1.63-.74c-.22,0-.33-.21-.33-.56s.11-.56.33-.56q.85,0,2.16.12t2,.12a14.7,14.7,0,0,0,1.53-.1,16.71,16.71,0,0,1,2-.14c.22,0,.33.19.33.56s-.11.53-.33.56a8,8,0,0,0-2.6.7,14.77,14.77,0,0,0-3,2.22l-3.5,3.1,5.34,5.85a13.9,13.9,0,0,0,2.85,2.55,7.47,7.47,0,0,0,3,.9Q169.86,32,169.86,32.54Z"/><path class="cls-1" d="M203.81,11q0,.41-.71.41a.39.39,0,0,1-.43-.28,6.52,6.52,0,0,0-2.44-3.58A7.15,7.15,0,0,0,196,6.33h-3.67a2.14,2.14,0,0,0-2.4,2.44v9.06h4.64a3.33,3.33,0,0,0,2.76-.94,7.18,7.18,0,0,0,1-3.32q0-.33.55-.33t.57.33q0,1-.12,2.57t-.12,2.42q0,1,.12,2.44t.12,2.61q0,.33-.57.33t-.55-.33a7.6,7.6,0,0,0-1.09-3.48,3.21,3.21,0,0,0-2.7-1h-4.64v9.41a4,4,0,0,0,.36,2,2.38,2.38,0,0,0,1.26.92,11.92,11.92,0,0,0,2.6.54q.35,0,.35.55t-.33.57q-1.36,0-3.26-.12t-3.05-.12q-1.24,0-3,.12t-3.24.12q-.33,0-.33-.57t.33-.55a11.81,11.81,0,0,0,2.59-.54,2.41,2.41,0,0,0,1.25-.91,4,4,0,0,0,.36-2V9.36a4.23,4.23,0,0,0-.34-2,2.31,2.31,0,0,0-1.23-.93,11.37,11.37,0,0,0-2.63-.55c-.22,0-.33-.19-.33-.56s.11-.56.33-.56Q186.7,5,192.08,5q5.09,0,10.2-.24A55,55,0,0,0,203.81,11Z"/><path class="cls-1" d="M213.94,33.56a3.47,3.47,0,0,1-2-.56,2.78,2.78,0,0,1-1.14-1.52,7.6,7.6,0,0,1-5.7,2.24,4.11,4.11,0,0,1-3-1.13A3.77,3.77,0,0,1,201,29.77q0-4.18,9.9-6.76l.12-3.18v-.1a3.53,3.53,0,0,0-.72-2.33,2.38,2.38,0,0,0-1.92-.87,3.48,3.48,0,0,0-2,.58,1.78,1.78,0,0,0-.85,1.46,3,3,0,0,1-.68,2,2.26,2.26,0,0,1-1.76.73,1.47,1.47,0,0,1-1.06-.39,1.36,1.36,0,0,1-.41-1q0-1.57,2.85-3.29a10.39,10.39,0,0,1,5.3-1.72,4.94,4.94,0,0,1,3.56,1.3,4.62,4.62,0,0,1,1.36,3.5V20l-.3,9.21v.14q0,2.14,1.38,2.14a2.54,2.54,0,0,0,1.57-.82l.14,0a.39.39,0,0,1,.31.21.82.82,0,0,1,.14.46q0,.59-1.23,1.45A4.6,4.6,0,0,1,213.94,33.56Zm-3.12-9.19q-5.93,1.35-5.93,4.45,0,2.9,2.23,2.9a4.57,4.57,0,0,0,2.12-.54,3,3,0,0,0,1.41-1.34Z"/><path class="cls-1" d="M251,32.54q0,.57-.33.57a19.91,19.91,0,0,1-2-.12q-1.3-.12-2.31-.12t-2.29.12a19.9,19.9,0,0,1-2,.12q-.32,0-.32-.57c0-.34.11-.52.32-.55a2.43,2.43,0,0,0,1.81-.8,5.36,5.36,0,0,0,.43-2.65v-6.8a5.21,5.21,0,0,0-.87-3.35,3.37,3.37,0,0,0-2.74-1A5.39,5.39,0,0,0,236.66,19v9.53a5.15,5.15,0,0,0,.45,2.65,2.51,2.51,0,0,0,1.83.8q.32,0,.32.55t-.33.57A17.17,17.17,0,0,1,237,33a21.18,21.18,0,0,0-2.16-.12,22.13,22.13,0,0,0-2.23.12,17.17,17.17,0,0,1-1.9.12q-.33,0-.33-.57t.33-.55a2.52,2.52,0,0,0,1.85-.8,5.24,5.24,0,0,0,.44-2.65v-6.8a5.11,5.11,0,0,0-.9-3.34,3.44,3.44,0,0,0-2.78-1.06,4.68,4.68,0,0,0-2.09.45,7,7,0,0,0-1.95,1.59v9.16a5.23,5.23,0,0,0,.44,2.65,2.51,2.51,0,0,0,1.85.8q.33,0,.33.55t-.32.57q-.83,0-2-.12t-2.32-.12q-1,0-2.32.12a19.47,19.47,0,0,1-2,.12q-.33,0-.33-.57t.33-.55a3.52,3.52,0,0,0,2.23-.83,4.53,4.53,0,0,0,.5-2.6V21a3.68,3.68,0,0,0-.42-2.14,2.81,2.81,0,0,0-1.82-.67c-.22,0-.32-.18-.32-.54s.11-.5.32-.5A18.2,18.2,0,0,0,222.78,16a5.72,5.72,0,0,0,1.69-1,.58.58,0,0,1,.45-.24q.57,0,.57.33l-.16,2.57q2.94-2.73,5.48-2.73,3.88,0,5.27,3,3.08-3,6-3a5.78,5.78,0,0,1,4.33,1.59A5.86,5.86,0,0,1,248,20.77v7.78a4.53,4.53,0,0,0,.5,2.61,3.51,3.51,0,0,0,2.23.84Q251,32,251,32.54Z"/><path class="cls-1" d="M262.1,32.54q0,.57-.33.57-.83,0-2.14-.12-1.46-.12-2.45-.12t-2.43.12q-1.28.12-2.12.12-.33,0-.33-.57t.33-.55a3.52,3.52,0,0,0,2.23-.83,4.53,4.53,0,0,0,.5-2.6V21a3.68,3.68,0,0,0-.42-2.14,2.81,2.81,0,0,0-1.82-.67c-.22,0-.32-.18-.32-.54s.11-.5.32-.5A21.48,21.48,0,0,0,256.61,16a5.51,5.51,0,0,0,1.71-1,.58.58,0,0,1,.45-.24c.38,0,.57.11.57.33q-.33,4.56-.33,7.09v6.39a4.54,4.54,0,0,0,.5,2.61,3.58,3.58,0,0,0,2.27.84Q262.1,32,262.1,32.54ZM259.25,7.92a2,2,0,0,1-.62,1.49,2.09,2.09,0,0,1-3,0,2.13,2.13,0,0,1,0-3,2.15,2.15,0,0,1,3,0A2,2,0,0,1,259.25,7.92Z"/><path class="cls-1" d="M273.06,32.5q0,.57-.33.57-.83,0-2.14-.1-1.47-.1-2.46-.1t-2.42.1q-1.3.1-2.14.1c-.22,0-.32-.19-.32-.57s.11-.52.32-.55a3.5,3.5,0,0,0,2.25-.82,4.43,4.43,0,0,0,.52-2.62V9.6a3.81,3.81,0,0,0-.41-2.16,2.86,2.86,0,0,0-1.87-.67q-.33,0-.33-.52t.33-.5a21.67,21.67,0,0,0,3.5-1.17,5.22,5.22,0,0,0,1.71-1,.6.6,0,0,1,.45-.22q.57,0,.57.33Q270,8.2,270,10.73V28.51a4.51,4.51,0,0,0,.51,2.62,3.48,3.48,0,0,0,2.26.82Q273.06,32,273.06,32.5Z"/><path class="cls-1" d="M292.89,16.11c0,.35-.11.53-.33.56a3.68,3.68,0,0,0-2.13.81,8.38,8.38,0,0,0-1.64,2.63l-9.61,20.77q-1.61,3.34-3.75,3.34a2.39,2.39,0,0,1-1.66-.56,1.85,1.85,0,0,1-.62-1.44,2.07,2.07,0,0,1,.56-1.5,2,2,0,0,1,1.49-.58,2.17,2.17,0,0,1,1,.31,1.41,1.41,0,0,0,.53.18q.68,0,1.59-2.28l2.54-5.5-4.75-12.75a7.33,7.33,0,0,0-1.52-2.57,3.62,3.62,0,0,0-2.07-.87c-.22,0-.33-.21-.33-.56s.1-.56.31-.56a18.51,18.51,0,0,1,1.93.12q1.27.12,2.24.12t2.35-.12q1.29-.12,2.13-.12.33,0,.33.56c0,.35-.11.53-.33.56q-2.13.27-2.13,1.23a7.57,7.57,0,0,0,.56,2.21l3.28,8.4,3.89-8.4a5.07,5.07,0,0,0,.5-1.91q0-1.28-2-1.53-.33,0-.33-.55t.33-.57a16.67,16.67,0,0,1,1.91.12,16,16,0,0,0,1.87.12q.42,0,1.37-.1a20.35,20.35,0,0,1,2.1-.14Q292.89,15.55,292.89,16.11Z"/><path class="cls-3" d="M75.6,41.73H79a4.07,4.07,0,0,1,1.72.37,4.71,4.71,0,0,1,1.41,1,4.57,4.57,0,0,1,.95,1.43,4.41,4.41,0,0,1,0,3.41,4.56,4.56,0,0,1-.94,1.43,4.64,4.64,0,0,1-1.4,1A4.1,4.1,0,0,1,79,50.7H75.6Zm2.33,7h.54a2.88,2.88,0,0,0,1.08-.19,2.31,2.31,0,0,0,.8-.52,2.23,2.23,0,0,0,.5-.79,2.83,2.83,0,0,0,.17-1,2.76,2.76,0,0,0-.18-1,2.3,2.3,0,0,0-.51-.8,2.33,2.33,0,0,0-.8-.52,2.87,2.87,0,0,0-1.07-.19h-.54Z"/><path class="cls-3" d="M96.45,43.7H93.68v1.5H96.3v2H93.68v1.55h2.77v2H91.35v-9h5.11Z"/><path class="cls-3" d="M105,50.7v-9h2.33l4.31,5.49V41.73H114v9h-2.32l-4.31-5.49V50.7Z"/><path class="cls-3" d="M126.12,43.7v7h-2.33v-7h-1.92v-2H128v2Z"/><path class="cls-3" d="M140.55,49.14h-3.33l-.54,1.56h-2.49l3.42-9h2.55l3.42,9h-2.49Zm-.62-1.77-1-3-1,3Z"/><path class="cls-3" d="M153.8,41.73v7h2.8v2h-5.13v-9Z"/><path class="cls-3" d="M180,45.68h4.63q0,.71-.06,1.3a4.6,4.6,0,0,1-.24,1.08,4.3,4.3,0,0,1-.68,1.24,4,4,0,0,1-1,.91,4.72,4.72,0,0,1-1.27.55,5.42,5.42,0,0,1-1.45.19,5.1,5.1,0,0,1-1.91-.35,4.29,4.29,0,0,1-1.48-1,4.36,4.36,0,0,1-1-1.5,5.22,5.22,0,0,1-.35-1.93,5.29,5.29,0,0,1,.34-1.92,4.23,4.23,0,0,1,1-1.49,4.36,4.36,0,0,1,1.51-1,5.34,5.34,0,0,1,2-.35,4.88,4.88,0,0,1,2.47.61A4.21,4.21,0,0,1,184.1,44l-2.21.92a2.25,2.25,0,0,0-.8-1.06A2,2,0,0,0,180,43.5a2.26,2.26,0,0,0-1,.2,2.06,2.06,0,0,0-.73.56,2.67,2.67,0,0,0-.48.87,3.86,3.86,0,0,0,0,2.2,2.37,2.37,0,0,0,.45.84,2,2,0,0,0,.74.55,2.49,2.49,0,0,0,1,.2,2.81,2.81,0,0,0,.67-.08,1.74,1.74,0,0,0,.58-.25,1.42,1.42,0,0,0,.42-.45,1.79,1.79,0,0,0,.23-.67H180Z"/><path class="cls-3" d="M199.92,50.7H197l-2.23-3.45V50.7h-2.33v-9h3.63a3.57,3.57,0,0,1,1.31.22,2.47,2.47,0,0,1,1.47,1.48A3.07,3.07,0,0,1,199,44.5a2.63,2.63,0,0,1-.49,1.66,2.49,2.49,0,0,1-1.46.86Zm-5.13-5h.44a1.7,1.7,0,0,0,1.06-.29,1.1,1.1,0,0,0,0-1.64,1.7,1.7,0,0,0-1.06-.29h-.44Z"/><path class="cls-3" d="M206.72,46.22a4.62,4.62,0,0,1,3-4.37,5.69,5.69,0,0,1,4,0,4.73,4.73,0,0,1,1.58,1,4.61,4.61,0,0,1,1,1.51,4.89,4.89,0,0,1,0,3.73,4.61,4.61,0,0,1-1,1.51,4.71,4.71,0,0,1-1.58,1,5.69,5.69,0,0,1-4,0,4.64,4.64,0,0,1-3-4.37Zm2.44,0a2.39,2.39,0,0,0,.2,1,2.47,2.47,0,0,0,1.35,1.3,2.65,2.65,0,0,0,1.94,0,2.54,2.54,0,0,0,.81-.52,2.46,2.46,0,0,0,.55-.79,2.52,2.52,0,0,0,0-2,2.46,2.46,0,0,0-.55-.79,2.54,2.54,0,0,0-.81-.52,2.65,2.65,0,0,0-1.94,0,2.47,2.47,0,0,0-1.35,1.3A2.39,2.39,0,0,0,209.16,46.22Z"/><path class="cls-3" d="M226.86,41.73v4.88q0,.39,0,.8a2.18,2.18,0,0,0,.18.74,1.23,1.23,0,0,0,.47.54,1.65,1.65,0,0,0,.9.21,1.62,1.62,0,0,0,.9-.21,1.28,1.28,0,0,0,.47-.54,2.13,2.13,0,0,0,.18-.74q0-.41,0-.8V41.73h2.32v5.2a4.21,4.21,0,0,1-1,3.06,5,5,0,0,1-5.9,0,4.19,4.19,0,0,1-1-3.06v-5.2Z"/><path class="cls-3" d="M243,50.7h-2.33v-9h3.71a3.18,3.18,0,0,1,2.32.79,3.45,3.45,0,0,1,0,4.43,3.18,3.18,0,0,1-2.32.78H243Zm0-4.86h.77q1.29,0,1.29-1.12t-1.29-1.12H243Z"/><path class="cls-1" d="M67,5.79a.86.86,0,0,1-.19.53.52.52,0,0,1-.41.24,5.2,5.2,0,0,0-3,1.18A11.11,11.11,0,0,0,61,11.59L48.35,40q-.12.4-.69.4A.78.78,0,0,1,47,40L39.89,25.25,31.75,40a.78.78,0,0,1-.69.4.7.7,0,0,1-.72-.4L17.95,11.59A10,10,0,0,0,15.5,7.87a6.68,6.68,0,0,0-3.59-1.31.49.49,0,0,1-.37-.21.72.72,0,0,1-.17-.47q0-.68.4-.68,1.66,0,3.47.15t3.17.15q1.51,0,3.57-.15t3.81-.15q.4,0,.4.68t-.25.68a4.87,4.87,0,0,0-2.61.85,2.26,2.26,0,0,0-1,1.89,3.86,3.86,0,0,0,.4,1.49L32.87,34l5.94-11L33.38,11.59A14.74,14.74,0,0,0,31,7.65a4.79,4.79,0,0,0-2.84-1.08.44.44,0,0,1-.33-.21.75.75,0,0,1-.16-.47q0-.68.35-.68a28.78,28.78,0,0,1,3,.15,25.74,25.74,0,0,0,2.85.15q1.48,0,3.14-.15t3.36-.15q.4,0,.4.68t-.25.68q-3.31.22-3.31,1.89A6.11,6.11,0,0,0,38,10.77l3.59,7.28,3.57-6.66A5.41,5.41,0,0,0,45.88,9q0-2.29-3.32-2.44-.3,0-.3-.68a.81.81,0,0,1,.15-.46c.1-.15.2-.22.3-.22q1.19,0,2.92.15t2.72.15q.77,0,2.25-.12,1.88-.17,3.14-.17.3,0,.3.58,0,.78-.54.78a6.21,6.21,0,0,0-3.1,1.07,13.69,13.69,0,0,0-2.93,4l-4.75,8.79,6.42,13.1,9.51-22.1a6,6,0,0,0,.49-2.24q0-2.44-3.31-2.59-.3,0-.3-.68T56,5.21q1.21,0,2.87.15t2.57.15a24.8,24.8,0,0,0,2.52-.15q1.48-.15,2.67-.15Q67,5.21,67,5.79Z"/></svg>